<svg xmlns="http://www.w3.org/2000/svg" width="71" height="72" fill="none"><path fill="#1C274C" d="M20.797 12.789c11.545.009 10.482 15.712 10.477 21.994-.006 8.018 1.962 24.2-4.223 30.359-6.302 6.276-18.9 9.407-25.193 4.167-6.293-5.24 4.245-56.533 18.939-56.52zm29.486.024c-11.546-.01-10.509 15.696-10.514 21.977-.006 8.018-2.001 24.196 4.174 30.366 6.292 6.286 18.884 9.438 25.186 4.208s-4.152-56.54-18.846-56.551z"/><path fill="#1C274C" fill-rule="evenodd" d="m33.576.963 1.974.002 1.973.002-.023 28.602c-.004 4.147-1.852 6.524-3.944 7.743a8.515 8.515 0 0 1-3.9 1.128h-.051s-.003 0-.001-1.973c.002-1.974 0-1.974 0-1.974h-.019.01l.1-.006a4.571 4.571 0 0 0 1.874-.586c.867-.505 1.98-1.578 1.983-4.335L33.576.963z" clip-rule="evenodd"/><path fill="#1C274C" fill-rule="evenodd" d="M37.523.967 35.55.965 33.576.963l-.023 28.603c-.003 4.147 1.84 6.527 3.93 7.749a8.515 8.515 0 0 0 3.899 1.135h.051s.003 0 .004-1.973c.002-1.974.004-1.974.004-1.974h.009a4.273 4.273 0 0 1-.558-.072 4.571 4.571 0 0 1-1.415-.524c-.867-.506-1.978-1.58-1.976-4.338L37.523.967z" clip-rule="evenodd"/></svg>