<svg xmlns="http://www.w3.org/2000/svg" width="800" height="800" fill="none" viewBox="0 0 24 24"><path fill="#030D45" fill-rule="evenodd" d="M12 3.538a8.462 8.462 0 1 0 0 16.924 8.462 8.462 0 0 0 0-16.924zM2 12C2 6.477 6.477 2 12 2s10 4.477 10 10-4.477 10-10 10S2 17.523 2 12z" clip-rule="evenodd"/><path fill="#030D45" fill-rule="evenodd" d="M15.077 15.846a.77.77 0 1 0 0-1.538H8.923a.77.77 0 1 0 0 1.538h6.154z" clip-rule="evenodd"/><path fill="#030D45" d="M9.949 8.923a1.026 1.026 0 1 1-2.052 0 1.026 1.026 0 0 1 2.052 0zm6.154 0a1.026 1.026 0 1 1-2.052 0 1.026 1.026 0 0 1 2.052 0z"/></svg>