<svg xmlns="http://www.w3.org/2000/svg" width="62" height="68" fill="none"><path fill="#1C274C" d="M25.645 0h7.542v5.132c2.399-.15 4.724-.007 6.813.447C31.138 9.17 27.06 18.4 26.393 19.91l-.041.094c-2.166-.34-4.512-.62-6.732-.6-2.288.201-4.508.55-8.163 2.669-.516.375-1.21.99-2.155 1.928a4.89 4.89 0 0 0-.239-.16c-.076-.05-.168-.108-.284-.186a21.688 21.688 0 0 0-2.213-1.3C4.65 21.374 2.302 20.54 0 20.54v-7.528c3.98 0 7.559 1.391 10 2.639.848.432 1.591.865 2.207 1.25a14.659 14.659 0 0 1 2.12-3.335l-4.14-6.69 6.638-4.439 3.82 6.173a29.514 29.514 0 0 1 5-2.073V0zm20.653 16.485C43.48 17.78 41.04 19.906 38.84 24c0 0-4.88-2.21-8.84-3.359 3.039-6.1 6.575-9.533 11.79-11.926C46.833 6.399 52.85 5.806 60 6.05l-.338 9.112c-6.596-.226-10.375-.05-13.364 1.322z"/><path fill="#1C274C" d="M12.704 25.056C-1.216 37.326 18.67 68 34.579 68c15.91 0 37.816-30.647 21.875-44.697-.368-.324-.69-.616-.989-.886-1.317-1.194-2.194-1.989-4.625-3.417-4.892 0-7.84 4.836-9.183 7.782a2.19 2.19 0 0 1-.25.417l-3.093 8.505-1.115 3.956c-.118.417-.087.862.087 1.26l1.302 2.974 6.743-.773.442 3.762-6.342.728.413 5.97-3.825.257-.514-7.447-1.737-3.967a5.62 5.62 0 0 1-.262-3.781l.033-.118-3.899 1.742-2.549 6.367-3.564-1.393 2.019-5.043-6.154-1.432.879-3.688 7.677 1.788 7.009-3.132 2.357-6.479c-6.072-2.82-18.542-7.547-24.61-2.199z"/></svg>