<svg xmlns="http://www.w3.org/2000/svg" width="800" height="800" fill="none" viewBox="0 0 24 24"><path fill="#030D45" fill-rule="evenodd" d="M12 3.538a8.462 8.462 0 1 0 0 16.924 8.462 8.462 0 0 0 0-16.924zM2 12C2 6.477 6.477 2 12 2s10 4.477 10 10-4.477 10-10 10S2 17.523 2 12z" clip-rule="evenodd"/><path fill="#030D45" fill-rule="evenodd" d="M8.308 14.615a.77.77 0 0 1 1.077-.154c.462.348.842.556 1.225.684.383.128.812.188 1.39.188.578 0 1.007-.06 1.39-.188s.763-.336 1.225-.684a.77.77 0 1 1 .924 1.231c-.551.413-1.077.717-1.662.913-.586.195-1.189.267-1.877.267s-1.291-.072-1.877-.267c-.585-.196-1.11-.5-1.661-.913a.77.77 0 0 1-.154-1.077z" clip-rule="evenodd"/><path fill="#030D45" d="M9.949 8.923a1.026 1.026 0 1 1-2.052 0 1.026 1.026 0 0 1 2.052 0zm6.154 0a1.026 1.026 0 1 1-2.052 0 1.026 1.026 0 0 1 2.052 0z"/></svg>